<svg width="4" height="12" viewBox="0 0 4 12" fill="none" xmlns="http://www.w3.org/2000/svg">
<path fill-rule="evenodd" clip-rule="evenodd" d="M2 8.62207C2.7245 8.62207 3.3125 9.21007 3.3125 9.93457C3.3125 10.6591 2.7245 11.2471 2 11.2471C1.2755 11.2471 0.6875 10.6591 0.6875 9.93457C0.6875 9.21007 1.2755 8.62207 2 8.62207ZM2 4.68457C2.7245 4.68457 3.3125 5.27257 3.3125 5.99707C3.3125 6.72157 2.7245 7.30957 2 7.30957C1.2755 7.30957 0.6875 6.72157 0.6875 5.99707C0.6875 5.27257 1.2755 4.68457 2 4.68457ZM2 0.74707C2.7245 0.74707 3.3125 1.33507 3.3125 2.05957C3.3125 2.78407 2.7245 3.37207 2 3.37207C1.2755 3.37207 0.6875 2.78407 0.6875 2.05957C0.6875 1.33507 1.2755 0.74707 2 0.74707Z" fill="white"/>
</svg>
