<svg xmlns="http://www.w3.org/2000/svg" width="16" height="18" viewBox="0 0 16 18" fill="none">
  <g clip-path="url(#clip0_1559_6690)">
    <path d="M13.5 1.125C14.741 1.125 15.75 2.13223 15.75 3.375V14.625C15.75 15.866 14.741 16.875 13.5 16.875H2.25C1.00723 16.875 0 15.866 0 14.625V3.375C0 2.13223 1.00723 1.125 2.25 1.125H13.5ZM13.5 2.8125H2.25C1.93922 2.8125 1.6875 3.06422 1.6875 3.375V14.625C1.6875 14.9344 1.93922 15.1875 2.25 15.1875H13.5C13.8094 15.1875 14.0625 14.9344 14.0625 14.625V3.375C14.0625 3.06422 13.8094 2.8125 13.5 2.8125Z" fill="#2DCCFF"/>
  </g>
  <defs>
    <clipPath id="clip0_1559_6690">
      <rect width="15.75" height="18" fill="white"/>
    </clipPath>
  </defs>
</svg>