<svg xmlns="http://www.w3.org/2000/svg" width="16" height="18" viewBox="0 0 16 18" fill="none">
  <g clip-path="url(#clip0_1559_6694)">
    <path d="M2.25 1.125C1.00898 1.125 0 2.13398 0 3.375V14.625C0 15.866 1.00898 16.875 2.25 16.875H13.5C14.741 16.875 15.75 15.866 15.75 14.625V3.375C15.75 2.13398 14.741 1.125 13.5 1.125H2.25ZM11.8477 7.34766L7.34766 11.8477C7.01719 12.1781 6.48281 12.1781 6.15586 11.8477L3.90586 9.59766C3.57539 9.26719 3.57539 8.73281 3.90586 8.40586C4.23633 8.07891 4.7707 8.07539 5.09766 8.40586L6.75 10.0582L10.6523 6.15234C10.9828 5.82188 11.5172 5.82188 11.8441 6.15234C12.1711 6.48281 12.1746 7.01719 11.8441 7.34414L11.8477 7.34766Z" fill="#2DCCFF"/>
  </g>
  <defs>
    <clipPath id="clip0_1559_6694">
      <rect width="15.75" height="18" fill="white"/>
    </clipPath>
  </defs>
</svg>